<?xml version="1.0" encoding="utf-8"?>
<!-- Generator: Adobe Illustrator 21.0.0, SVG Export Plug-In . SVG Version: 6.00 Build 0)  -->
<svg version="1.1" id="Capa_1" xmlns="http://www.w3.org/2000/svg" xmlns:xlink="http://www.w3.org/1999/xlink" x="0px" y="0px"
	 viewBox="0 0 1600 930" style="enable-background:new 0 0 1600 930;" xml:space="preserve">
<style type="text/css">
	.st0{fill:#17171E;}
	.st1{fill:#FE9000;}
</style>
<g>
	<polygon class="st0" points="1600,907.5 0,905.9 0,0 1600,0 	"/>
	<path class="st1" d="M1600,867.8v-29.2c-11.4-0.8-27.6-2.2-46.9-4.5c-52.5-6.3-122.5-14.6-195-43.5
		c-83.6-33.3-137.9-80.8-174-112.5c-44.7-39.3-78.6-79.4-106.5-112.5c-11.9-14.1-39.4-47.2-72-93C947,390.4,942.7,367,908.1,321.1
		C862.7,260.9,814.6,227.6,769,196C545.7,41.2,280.4,50.9,221,54C136.6,58.4,60.8,74.2-0.2,92.8L0,930h1600V867.8z"/>
</g>
</svg>
